<svg xmlns="http://www.w3.org/2000/svg" width="800" height="600" viewBox="0 0 800 600">
  <!-- Fondo con gradiente suave -->
  <defs>
    <linearGradient id="grad1" x1="0%" y1="0%" x2="100%" y2="100%">
      <stop offset="0%" style="stop-color:#0062cc;stop-opacity:0.8" />
      <stop offset="100%" style="stop-color:#00b4d8;stop-opacity:0.8" />
    </linearGradient>
  </defs>
  
  <!-- Fondo principal -->
  <rect width="800" height="600" fill="url(#grad1)" />
  
  <!-- Elementos decorativos: patrón de puntos -->
  <g fill="rgba(255,255,255,0.2)">
    <circle cx="50" cy="50" r="2" />
    <circle cx="100" cy="50" r="2" />
    <circle cx="150" cy="50" r="2" />
    <circle cx="200" cy="50" r="2" />
    <circle cx="250" cy="50" r="2" />
    <circle cx="300" cy="50" r="2" />
    <circle cx="350" cy="50" r="2" />
    <circle cx="400" cy="50" r="2" />
    <circle cx="450" cy="50" r="2" />
    <circle cx="500" cy="50" r="2" />
    <circle cx="550" cy="50" r="2" />
    <circle cx="600" cy="50" r="2" />
    <circle cx="650" cy="50" r="2" />
    <circle cx="700" cy="50" r="2" />
    <circle cx="750" cy="50" r="2" />
    
    <circle cx="50" cy="100" r="2" />
    <circle cx="100" cy="100" r="2" />
    <circle cx="150" cy="100" r="2" />
    <circle cx="200" cy="100" r="2" />
    <circle cx="250" cy="100" r="2" />
    <circle cx="300" cy="100" r="2" />
    <circle cx="350" cy="100" r="2" />
    <circle cx="400" cy="100" r="2" />
    <circle cx="450" cy="100" r="2" />
    <circle cx="500" cy="100" r="2" />
    <circle cx="550" cy="100" r="2" />
    <circle cx="600" cy="100" r="2" />
    <circle cx="650" cy="100" r="2" />
    <circle cx="700" cy="100" r="2" />
    <circle cx="750" cy="100" r="2" />
    
    <!-- Repetir para más filas -->
    <circle cx="50" cy="150" r="2" />
    <circle cx="150" cy="150" r="2" />
    <circle cx="250" cy="150" r="2" />
    <circle cx="350" cy="150" r="2" />
    <circle cx="450" cy="150" r="2" />
    <circle cx="550" cy="150" r="2" />
    <circle cx="650" cy="150" r="2" />
    <circle cx="750" cy="150" r="2" />
    
    <circle cx="50" cy="200" r="2" />
    <circle cx="150" cy="200" r="2" />
    <circle cx="250" cy="200" r="2" />
    <circle cx="350" cy="200" r="2" />
    <circle cx="450" cy="200" r="2" />
    <circle cx="550" cy="200" r="2" />
    <circle cx="650" cy="200" r="2" />
    <circle cx="750" cy="200" r="2" />
    
    <circle cx="50" cy="250" r="2" />
    <circle cx="150" cy="250" r="2" />
    <circle cx="250" cy="250" r="2" />
    <circle cx="350" cy="250" r="2" />
    <circle cx="450" cy="250" r="2" />
    <circle cx="550" cy="250" r="2" />
    <circle cx="650" cy="250" r="2" />
    <circle cx="750" cy="250" r="2" />
    
    <circle cx="50" cy="300" r="2" />
    <circle cx="150" cy="300" r="2" />
    <circle cx="250" cy="300" r="2" />
    <circle cx="350" cy="300" r="2" />
    <circle cx="450" cy="300" r="2" />
    <circle cx="550" cy="300" r="2" />
    <circle cx="650" cy="300" r="2" />
    <circle cx="750" cy="300" r="2" />
    
    <circle cx="50" cy="350" r="2" />
    <circle cx="150" cy="350" r="2" />
    <circle cx="250" cy="350" r="2" />
    <circle cx="350" cy="350" r="2" />
    <circle cx="450" cy="350" r="2" />
    <circle cx="550" cy="350" r="2" />
    <circle cx="650" cy="350" r="2" />
    <circle cx="750" cy="350" r="2" />
    
    <circle cx="50" cy="400" r="2" />
    <circle cx="150" cy="400" r="2" />
    <circle cx="250" cy="400" r="2" />
    <circle cx="350" cy="400" r="2" />
    <circle cx="450" cy="400" r="2" />
    <circle cx="550" cy="400" r="2" />
    <circle cx="650" cy="400" r="2" />
    <circle cx="750" cy="400" r="2" />
    
    <circle cx="50" cy="450" r="2" />
    <circle cx="150" cy="450" r="2" />
    <circle cx="250" cy="450" r="2" />
    <circle cx="350" cy="450" r="2" />
    <circle cx="450" cy="450" r="2" />
    <circle cx="550" cy="450" r="2" />
    <circle cx="650" cy="450" r="2" />
    <circle cx="750" cy="450" r="2" />
    
    <circle cx="50" cy="500" r="2" />
    <circle cx="150" cy="500" r="2" />
    <circle cx="250" cy="500" r="2" />
    <circle cx="350" cy="500" r="2" />
    <circle cx="450" cy="500" r="2" />
    <circle cx="550" cy="500" r="2" />
    <circle cx="650" cy="500" r="2" />
    <circle cx="750" cy="500" r="2" />
    
    <circle cx="50" cy="550" r="2" />
    <circle cx="150" cy="550" r="2" />
    <circle cx="250" cy="550" r="2" />
    <circle cx="350" cy="550" r="2" />
    <circle cx="450" cy="550" r="2" />
    <circle cx="550" cy="550" r="2" />
    <circle cx="650" cy="550" r="2" />
    <circle cx="750" cy="550" r="2" />
  </g>
  
  <!-- Elementos de contacto -->
  <!-- Sobre/Email -->
  <g transform="translate(250, 250)">
    <rect x="-100" y="-60" width="200" height="120" fill="#ffffff" rx="10" ry="10" />
    <path d="M-100,-20 L0,20 L100,-20" stroke="#00b4d8" stroke-width="3" fill="none" />
    <path d="M-100,-60 L0,-20 L100,-60" stroke="#00b4d8" stroke-width="3" fill="none" />
  </g>
  
  <!-- Teléfono -->
  <g transform="translate(550, 250)">
    <rect x="-40" y="-70" width="80" height="140" fill="#ffffff" rx="10" ry="10" />
    <rect x="-30" y="-60" width="60" height="100" fill="#e9ecef" rx="5" ry="5" />
    <circle cx="0" cy="60" r="10" fill="#00b4d8" />
  </g>
  
  <!-- Ubicación/Pin -->
  <g transform="translate(400, 450)">
    <path d="M0,-50 C-30,-50 -50,-30 -50,0 C-50,50 0,100 0,100 C0,100 50,50 50,0 C50,-30 30,-50 0,-50 Z" fill="#ffffff" />
    <circle cx="0" cy="0" r="15" fill="#00b4d8" />
  </g>
  
  <!-- Líneas de conexión -->
  <g stroke="rgba(255,255,255,0.5)" stroke-width="2" stroke-dasharray="5,5">
    <line x1="250" y1="250" x2="400" y2="450" />
    <line x1="550" y1="250" x2="400" y2="450" />
  </g>
  
  <!-- Título -->
  <text x="400" y="100" font-family="Arial" font-size="30" fill="#ffffff" text-anchor="middle" font-weight="bold">Contáctanos</text>
  <text x="400" y="130" font-family="Arial" font-size="16" fill="#ffffff" text-anchor="middle">Estamos aquí para responder tus preguntas</text>
</svg>