<svg xmlns="http://www.w3.org/2000/svg" width="800" height="600" viewBox="0 0 800 600">
  <!-- Fondo con gradiente suave -->
  <defs>
    <linearGradient id="grad1" x1="0%" y1="0%" x2="100%" y2="100%">
      <stop offset="0%" style="stop-color:#f8f9fa;stop-opacity:1" />
      <stop offset="100%" style="stop-color:#e9ecef;stop-opacity:1" />
    </linearGradient>
  </defs>
  
  <!-- Fondo principal -->
  <rect width="800" height="600" fill="url(#grad1)" />
  
  <!-- Título -->
  <text x="400" y="80" font-family="Arial" font-size="24" fill="#212529" text-anchor="middle" font-weight="bold">Nuestro Equipo Docente</text>
  
  <!-- Siluetas de profesores -->
  <!-- Profesor 1 -->
  <g transform="translate(150, 250)">
    <!-- Cabeza -->
    <circle cx="0" cy="0" r="40" fill="#00b4d8" />
    <!-- Cuerpo -->
    <path d="M0,40 L0,150 M-50,70 L0,60 L50,70 M-30,180 L0,150 L30,180" stroke="#00b4d8" stroke-width="10" fill="none" />
    <!-- Nombre -->
    <text x="0" y="220" font-family="Arial" font-size="16" fill="#212529" text-anchor="middle">Prof. García</text>
    <!-- Materia -->
    <text x="0" y="240" font-family="Arial" font-size="14" fill="#6c757d" text-anchor="middle">Matemáticas</text>
  </g>
  
  <!-- Profesor 2 -->
  <g transform="translate(400, 250)">
    <!-- Cabeza -->
    <circle cx="0" cy="0" r="40" fill="#4361ee" />
    <!-- Cuerpo -->
    <path d="M0,40 L0,150 M-50,70 L0,60 L50,70 M-30,180 L0,150 L30,180" stroke="#4361ee" stroke-width="10" fill="none" />
    <!-- Nombre -->
    <text x="0" y="220" font-family="Arial" font-size="16" fill="#212529" text-anchor="middle">Prof. Martínez</text>
    <!-- Materia -->
    <text x="0" y="240" font-family="Arial" font-size="14" fill="#6c757d" text-anchor="middle">Ciencias</text>
  </g>
  
  <!-- Profesor 3 -->
  <g transform="translate(650, 250)">
    <!-- Cabeza -->
    <circle cx="0" cy="0" r="40" fill="#7209b7" />
    <!-- Cuerpo -->
    <path d="M0,40 L0,150 M-50,70 L0,60 L50,70 M-30,180 L0,150 L30,180" stroke="#7209b7" stroke-width="10" fill="none" />
    <!-- Nombre -->
    <text x="0" y="220" font-family="Arial" font-size="16" fill="#212529" text-anchor="middle">Prof. López</text>
    <!-- Materia -->
    <text x="0" y="240" font-family="Arial" font-size="14" fill="#6c757d" text-anchor="middle">Literatura</text>
  </g>
  
  <!-- Elementos decorativos: iconos educativos -->
  <g transform="translate(150, 400)" fill="#dee2e6">
    <circle cx="0" cy="0" r="25" />
    <text x="0" y="5" font-family="Arial" font-size="20" fill="#212529" text-anchor="middle">+</text>
  </g>
  
  <g transform="translate(400, 400)" fill="#dee2e6">
    <circle cx="0" cy="0" r="25" />
    <text x="0" y="5" font-family="Arial" font-size="20" fill="#212529" text-anchor="middle">⚗️</text>
  </g>
  
  <g transform="translate(650, 400)" fill="#dee2e6">
    <circle cx="0" cy="0" r="25" />
    <text x="0" y="5" font-family="Arial" font-size="20" fill="#212529" text-anchor="middle">📚</text>
  </g>
  
  <!-- Línea decorativa inferior -->
  <line x1="100" y1="500" x2="700" y2="500" stroke="#adb5bd" stroke-width="2" stroke-dasharray="10,5" />
  
  <!-- Texto informativo -->
  <text x="400" y="540" font-family="Arial" font-size="16" fill="#495057" text-anchor="middle">Profesionales comprometidos con la educación de calidad</text>
</svg>